<svg xmlns="http://www.w3.org/2000/svg" width="1200" height="720" viewBox="0 0 1200 720">
  <defs>
    <linearGradient id="bg" x1="0" x2="1" y1="0" y2="1">
      <stop offset="0" stop-color="#f3f4f2"/>
      <stop offset="1" stop-color="#fbfbf9"/>
    </linearGradient>
  </defs>
  <rect width="1200" height="720" fill="url(#bg)"/>
  <rect x="40" y="40" width="1120" height="64" rx="16" fill="#ffffff" opacity="0.78" stroke="#0f172a" stroke-opacity="0.12"/>
  <text x="72" y="82" font-family="ui-serif, Georgia" font-size="22" fill="#0f172a" font-weight="700">TripScore</text>
  <text x="210" y="82" font-family="ui-sans-serif, system-ui" font-size="14" fill="#475569">Evidence — map layers</text>

  <rect x="40" y="128" width="740" height="544" rx="18" fill="#ffffff" opacity="0.86" stroke="#0f172a" stroke-opacity="0.12"/>
  <rect x="72" y="160" width="676" height="480" rx="18" fill="#0f172a" opacity="0.06"/>
  <circle cx="190" cy="360" r="10" fill="#1f5b7a" opacity="0.9"/>
  <circle cx="190" cy="360" r="24" fill="#1f5b7a" opacity="0.15"/>
  <circle cx="390" cy="300" r="10" fill="#6aa9ff" opacity="0.9"/>
  <circle cx="520" cy="420" r="10" fill="#6aa9ff" opacity="0.9"/>
  <circle cx="590" cy="260" r="10" fill="#6aa9ff" opacity="0.9"/>
  <text x="92" y="664" font-family="ui-sans-serif, system-ui" font-size="12" fill="#475569">Toggle layers: bus / bike / metro / parking</text>

  <rect x="804" y="128" width="356" height="544" rx="18" fill="#ffffff" opacity="0.86" stroke="#0f172a" stroke-opacity="0.12"/>
  <text x="836" y="172" font-family="ui-sans-serif, system-ui" font-size="12" fill="#64748b" font-weight="800">INSPECTOR</text>
  <rect x="836" y="196" width="292" height="64" rx="16" fill="#fbfbf9" stroke="#0f172a" stroke-opacity="0.10"/>
  <text x="856" y="230" font-family="ui-sans-serif, system-ui" font-size="12" fill="#475569">Selected POI · score · confidence</text>
  <rect x="836" y="272" width="292" height="64" rx="16" fill="#fbfbf9" stroke="#0f172a" stroke-opacity="0.10"/>
  <rect x="836" y="348" width="292" height="64" rx="16" fill="#fbfbf9" stroke="#0f172a" stroke-opacity="0.10"/>
  <rect x="836" y="424" width="292" height="64" rx="16" fill="#fbfbf9" stroke="#0f172a" stroke-opacity="0.10"/>
  <text x="40" y="708" font-family="ui-monospace, monospace" font-size="12" fill="#64748b">Placeholder illustration — replace with real screenshots if desired.</text>
</svg>

